<svg xmlns="http://www.w3.org/2000/svg" width="1200" height="660" viewBox="0 0 1200 660" role="img" aria-labelledby="title desc">
  <title id="title">OpenAI, Claude, and Dot single-model backend review baselines</title>
  <desc id="desc">OpenAI, Claude, and Dot single-model backend review baselines. Values come from a committed raw benchmark receipt.</desc>
  <rect width="1200" height="660" fill="#ffffff"/>
  <style>
    text { font-family: Inter, ui-sans-serif, system-ui, -apple-system, "Segoe UI", sans-serif; fill:#111827; }
    .title { font-size:25px; font-weight:600; }
    .subtitle { font-size:14px; fill:#475569; }
    .panel-title { font-size:16px; font-weight:600; }
    .axis-label { font-size:13px; fill:#334155; }
    .tick { font-size:12px; fill:#64748b; }
    .point-label { font-size:11px; font-weight:600; }
    .category { font-size:13px; font-weight:600; }
    .note { font-size:13px; font-weight:600; fill:#334155; }
    .footnote { font-size:11px; fill:#64748b; }
    .heat-label-light { font-size:13px; font-weight:600; fill:#ffffff; }
    .heat-label-dark { font-size:13px; font-weight:600; fill:#111827; }
  </style>
<text x="54" y="46" class="title" text-anchor="start">Single-model baselines on the same backend review tasks</text>
<text x="54" y="76" class="subtitle" text-anchor="start">6 frozen cases per model; 18 judged outputs; one iteration</text>
<text x="54" y="100" class="subtitle" text-anchor="start">Independent judge: dot-deepseek-v4-pro. Error bars show the reported 95% mean interval.</text>
<text x="76" y="140" class="panel-title" text-anchor="start">A  Judge quality vs provider credits</text>
<text x="680" y="140" class="panel-title" text-anchor="start">B  Judge quality vs P95 latency</text>
<line x1="76" y1="423.1044776119403" x2="536" y2="423.1044776119403" stroke="#e5e7eb" stroke-width="1"/>
<text x="65" y="427.1044776119403" class="tick" text-anchor="end">40%</text>
<line x1="76" y1="360.4179104477612" x2="536" y2="360.4179104477612" stroke="#e5e7eb" stroke-width="1"/>
<text x="65" y="364.4179104477612" class="tick" text-anchor="end">55%</text>
<line x1="76" y1="297.7313432835821" x2="536" y2="297.7313432835821" stroke="#e5e7eb" stroke-width="1"/>
<text x="65" y="301.7313432835821" class="tick" text-anchor="end">70%</text>
<line x1="76" y1="235.044776119403" x2="536" y2="235.044776119403" stroke="#e5e7eb" stroke-width="1"/>
<text x="65" y="239.044776119403" class="tick" text-anchor="end">85%</text>
<line x1="76" y1="172.35820895522386" x2="536" y2="172.35820895522386" stroke="#e5e7eb" stroke-width="1"/>
<text x="65" y="176.35820895522386" class="tick" text-anchor="end">100%</text>
<line x1="76" y1="164" x2="76" y2="444" stroke="#f1f5f9" stroke-width="1"/>
<text x="76" y="468" class="tick" text-anchor="middle">0</text>
<line x1="191" y1="164" x2="191" y2="444" stroke="#f1f5f9" stroke-width="1"/>
<text x="191" y="468" class="tick" text-anchor="middle">3.5</text>
<line x1="306" y1="164" x2="306" y2="444" stroke="#f1f5f9" stroke-width="1"/>
<text x="306" y="468" class="tick" text-anchor="middle">7</text>
<line x1="421" y1="164" x2="421" y2="444" stroke="#f1f5f9" stroke-width="1"/>
<text x="421" y="468" class="tick" text-anchor="middle">10.5</text>
<line x1="536" y1="164" x2="536" y2="444" stroke="#f1f5f9" stroke-width="1"/>
<text x="536" y="468" class="tick" text-anchor="middle">14</text>
<line x1="76" y1="444" x2="536" y2="444" stroke="#111827" stroke-width="1.25"/>
<line x1="76" y1="164" x2="76" y2="444" stroke="#111827" stroke-width="1.25"/>
<text x="306" y="498" class="axis-label" text-anchor="middle">Provider credits / run</text>
<text x="22" y="304" class="axis-label" text-anchor="middle" transform="rotate(-90 22 304)">Judge quality</text>
<line x1="680" y1="423.1044776119403" x2="1140" y2="423.1044776119403" stroke="#e5e7eb" stroke-width="1"/>
<text x="669" y="427.1044776119403" class="tick" text-anchor="end">40%</text>
<line x1="680" y1="360.4179104477612" x2="1140" y2="360.4179104477612" stroke="#e5e7eb" stroke-width="1"/>
<text x="669" y="364.4179104477612" class="tick" text-anchor="end">55%</text>
<line x1="680" y1="297.7313432835821" x2="1140" y2="297.7313432835821" stroke="#e5e7eb" stroke-width="1"/>
<text x="669" y="301.7313432835821" class="tick" text-anchor="end">70%</text>
<line x1="680" y1="235.044776119403" x2="1140" y2="235.044776119403" stroke="#e5e7eb" stroke-width="1"/>
<text x="669" y="239.044776119403" class="tick" text-anchor="end">85%</text>
<line x1="680" y1="172.35820895522386" x2="1140" y2="172.35820895522386" stroke="#e5e7eb" stroke-width="1"/>
<text x="669" y="176.35820895522386" class="tick" text-anchor="end">100%</text>
<line x1="680" y1="164" x2="680" y2="444" stroke="#f1f5f9" stroke-width="1"/>
<text x="680" y="468" class="tick" text-anchor="middle">0</text>
<line x1="795" y1="164" x2="795" y2="444" stroke="#f1f5f9" stroke-width="1"/>
<text x="795" y="468" class="tick" text-anchor="middle">20</text>
<line x1="910" y1="164" x2="910" y2="444" stroke="#f1f5f9" stroke-width="1"/>
<text x="910" y="468" class="tick" text-anchor="middle">40</text>
<line x1="1025" y1="164" x2="1025" y2="444" stroke="#f1f5f9" stroke-width="1"/>
<text x="1025" y="468" class="tick" text-anchor="middle">60</text>
<line x1="1140" y1="164" x2="1140" y2="444" stroke="#f1f5f9" stroke-width="1"/>
<text x="1140" y="468" class="tick" text-anchor="middle">80</text>
<line x1="680" y1="444" x2="1140" y2="444" stroke="#111827" stroke-width="1.25"/>
<line x1="680" y1="164" x2="680" y2="444" stroke="#111827" stroke-width="1.25"/>
<text x="910" y="498" class="axis-label" text-anchor="middle">P95 workflow latency (s)</text>
<text x="626" y="304" class="axis-label" text-anchor="middle" transform="rotate(-90 626 304)">Judge quality</text>
<line x1="492.1904761904762" y1="172.35820895522386" x2="492.1904761904762" y2="172.35820895522386" stroke="#2563a6" stroke-width="2"/>
<line x1="486.1904761904762" y1="172.35820895522386" x2="498.1904761904762" y2="172.35820895522386" stroke="#2563a6" stroke-width="2"/>
<line x1="486.1904761904762" y1="172.35820895522386" x2="498.1904761904762" y2="172.35820895522386" stroke="#2563a6" stroke-width="2"/>
<circle cx="492.2" cy="172.4" r="7" fill="#2563a6" stroke="#ffffff" stroke-width="1.5"/>
<text x="482.1904761904762" y="160.35820895522386" class="point-label" text-anchor="end">OpenAI 100.0%</text>
<line x1="1096.1332499999999" y1="172.35820895522386" x2="1096.1332499999999" y2="172.35820895522386" stroke="#2563a6" stroke-width="2"/>
<line x1="1090.1332499999999" y1="172.35820895522386" x2="1102.1332499999999" y2="172.35820895522386" stroke="#2563a6" stroke-width="2"/>
<line x1="1090.1332499999999" y1="172.35820895522386" x2="1102.1332499999999" y2="172.35820895522386" stroke="#2563a6" stroke-width="2"/>
<circle cx="1096.1" cy="172.4" r="7" fill="#2563a6" stroke="#ffffff" stroke-width="1.5"/>
<text x="1086.1332499999999" y="160.35820895522386" class="point-label" text-anchor="end">OpenAI 72.4s</text>
<line x1="191" y1="316.67661691542287" x2="191" y2="172.35820895522386" stroke="#d97706" stroke-width="2"/>
<line x1="185" y1="316.67661691542287" x2="197" y2="316.67661691542287" stroke="#d97706" stroke-width="2"/>
<line x1="185" y1="172.35820895522386" x2="197" y2="172.35820895522386" stroke="#d97706" stroke-width="2"/>
<circle cx="191.0" cy="221.1" r="7" fill="#d97706" stroke="#ffffff" stroke-width="1.5"/>
<text x="201" y="209.11442786069654" class="point-label" text-anchor="start">Claude 88.3%</text>
<line x1="1052.1975" y1="316.67661691542287" x2="1052.1975" y2="172.35820895522386" stroke="#d97706" stroke-width="2"/>
<line x1="1046.1975" y1="316.67661691542287" x2="1058.1975" y2="316.67661691542287" stroke="#d97706" stroke-width="2"/>
<line x1="1046.1975" y1="172.35820895522386" x2="1058.1975" y2="172.35820895522386" stroke="#d97706" stroke-width="2"/>
<circle cx="1052.2" cy="221.1" r="7" fill="#d97706" stroke="#ffffff" stroke-width="1.5"/>
<text x="1062.1975" y="209.11442786069654" class="point-label" text-anchor="start">Claude 64.7s</text>
<line x1="108.85714285714286" y1="426.8107049448907" x2="108.85714285714286" y2="172.35820895522386" stroke="#6b7280" stroke-width="2"/>
<line x1="102.85714285714286" y1="426.8107049448907" x2="114.85714285714286" y2="426.8107049448907" stroke="#6b7280" stroke-width="2"/>
<line x1="102.85714285714286" y1="172.35820895522386" x2="114.85714285714286" y2="172.35820895522386" stroke="#6b7280" stroke-width="2"/>
<circle cx="108.9" cy="297.7" r="7" fill="#6b7280" stroke="#ffffff" stroke-width="1.5"/>
<text x="118.85714285714286" y="285.7313432835821" class="point-label" text-anchor="start">Dot 70.0%</text>
<line x1="828.7065" y1="426.8107049448907" x2="828.7065" y2="172.35820895522386" stroke="#6b7280" stroke-width="2"/>
<line x1="822.7065" y1="426.8107049448907" x2="834.7065" y2="426.8107049448907" stroke="#6b7280" stroke-width="2"/>
<line x1="822.7065" y1="172.35820895522386" x2="834.7065" y2="172.35820895522386" stroke="#6b7280" stroke-width="2"/>
<circle cx="828.7" cy="297.7" r="7" fill="#6b7280" stroke="#ffffff" stroke-width="1.5"/>
<text x="838.7065" y="285.7313432835821" class="point-label" text-anchor="start">Dot 25.9s</text>
<text x="54" y="530" class="note" text-anchor="start">Observed frontier: higher mean judge quality required more provider credits and latency in this six-case sample.</text>
<text x="54" y="562" class="footnote" text-anchor="start">This is a baseline comparison, not evidence that cross-model review improves answers. The review matrix ran out of credits.</text>
<text x="54" y="590" class="footnote" text-anchor="start">Raw receipt: docs/benchmarks/cross-model-baselines-v1.json | generated 2026-07-14T15:45:28.474Z</text>
</svg>
