<svg xmlns="http://www.w3.org/2000/svg" width="1200" height="640" viewBox="0 0 1200 640" role="img" aria-labelledby="title desc">
  <title id="title">Dot Loom v0.2 exploratory benchmark figure</title>
  <desc id="desc">Dot Loom v0.2 exploratory benchmark figure. Values are generated from committed benchmark JSON receipts.</desc>
  <rect width="1200" height="640" fill="#ffffff"/>
  <style>
    text { font-family: Inter, ui-sans-serif, system-ui, -apple-system, "Segoe UI", sans-serif; fill:#111827; }
    .title { font-size:25px; font-weight:600; }
    .subtitle { font-size:14px; fill:#475569; }
    .panel-title { font-size:16px; font-weight:600; }
    .axis-label { font-size:13px; fill:#334155; }
    .tick { font-size:12px; fill:#64748b; }
    .point-label { font-size:12px; font-weight:600; }
    .category { font-size:14px; font-weight:600; }
    .bar-label-light { font-size:11px; font-weight:600; fill:#ffffff; }
    .legend { font-size:12px; fill:#334155; }
    .note { font-size:13px; font-weight:600; fill:#334155; }
    .footnote { font-size:11px; fill:#64748b; }
  </style>
<text x="54" y="46" class="title" text-anchor="start">Dot Loom v0.2: measured compute–quality trade-offs</text>
<text x="54" y="75" class="subtitle" text-anchor="start">3 high-risk code-review cases × 1 iteration; 9 judged runs</text>
<text x="54" y="98" class="subtitle" text-anchor="start">Workflow credits exclude judge calls. Error bars show the reported 95% interval for mean judge quality.</text>
<text x="72" y="132" class="panel-title" text-anchor="start">A  Provider credits vs judge quality</text>
<text x="672" y="132" class="panel-title" text-anchor="start">B  Provider credits vs P95 latency</text>
<line x1="72" y1="454" x2="542" y2="454" stroke="#e5e7eb" stroke-width="1"/>
<text x="61" y="458" class="tick" text-anchor="end">94%</text>
<line x1="72" y1="361.6923076923075" x2="542" y2="361.6923076923075" stroke="#e5e7eb" stroke-width="1"/>
<text x="61" y="365.6923076923075" class="tick" text-anchor="end">96%</text>
<line x1="72" y1="269.3846153846151" x2="542" y2="269.3846153846151" stroke="#e5e7eb" stroke-width="1"/>
<text x="61" y="273.3846153846151" class="tick" text-anchor="end">98%</text>
<line x1="72" y1="177.07692307692258" x2="542" y2="177.07692307692258" stroke="#e5e7eb" stroke-width="1"/>
<text x="61" y="181.07692307692258" class="tick" text-anchor="end">100%</text>
<line x1="130.75" y1="154" x2="130.75" y2="454" stroke="#f1f5f9" stroke-width="1"/>
<text x="130.75" y="478" class="tick" text-anchor="middle">1</text>
<line x1="248.25" y1="154" x2="248.25" y2="454" stroke="#f1f5f9" stroke-width="1"/>
<text x="248.25" y="478" class="tick" text-anchor="middle">2</text>
<line x1="365.75" y1="154" x2="365.75" y2="454" stroke="#f1f5f9" stroke-width="1"/>
<text x="365.75" y="478" class="tick" text-anchor="middle">3</text>
<line x1="483.25" y1="154" x2="483.25" y2="454" stroke="#f1f5f9" stroke-width="1"/>
<text x="483.25" y="478" class="tick" text-anchor="middle">4</text>
<line x1="72" y1="454" x2="542" y2="454" stroke="#111827" stroke-width="1.25"/>
<line x1="72" y1="154" x2="72" y2="454" stroke="#111827" stroke-width="1.25"/>
<text x="307" y="508" class="axis-label" text-anchor="middle">Provider credits / run</text>
<text x="18" y="304" class="axis-label" text-anchor="middle" transform="rotate(-90 18 304)">Judge quality</text>
<line x1="672" y1="454" x2="1142" y2="454" stroke="#e5e7eb" stroke-width="1"/>
<text x="661" y="458" class="tick" text-anchor="end">45</text>
<line x1="672" y1="354" x2="1142" y2="354" stroke="#e5e7eb" stroke-width="1"/>
<text x="661" y="358" class="tick" text-anchor="end">60</text>
<line x1="672" y1="254" x2="1142" y2="254" stroke="#e5e7eb" stroke-width="1"/>
<text x="661" y="258" class="tick" text-anchor="end">75</text>
<line x1="672" y1="154" x2="1142" y2="154" stroke="#e5e7eb" stroke-width="1"/>
<text x="661" y="158" class="tick" text-anchor="end">90</text>
<line x1="730.75" y1="154" x2="730.75" y2="454" stroke="#f1f5f9" stroke-width="1"/>
<text x="730.75" y="478" class="tick" text-anchor="middle">1</text>
<line x1="848.25" y1="154" x2="848.25" y2="454" stroke="#f1f5f9" stroke-width="1"/>
<text x="848.25" y="478" class="tick" text-anchor="middle">2</text>
<line x1="965.75" y1="154" x2="965.75" y2="454" stroke="#f1f5f9" stroke-width="1"/>
<text x="965.75" y="478" class="tick" text-anchor="middle">3</text>
<line x1="1083.25" y1="154" x2="1083.25" y2="454" stroke="#f1f5f9" stroke-width="1"/>
<text x="1083.25" y="478" class="tick" text-anchor="middle">4</text>
<line x1="672" y1="454" x2="1142" y2="454" stroke="#111827" stroke-width="1.25"/>
<line x1="672" y1="154" x2="672" y2="454" stroke="#111827" stroke-width="1.25"/>
<text x="907" y="508" class="axis-label" text-anchor="middle">Provider credits / run</text>
<text x="618" y="304" class="axis-label" text-anchor="middle" transform="rotate(-90 618 304)">P95 latency (s)</text>
<path d="M730.8,397.0 L848.3,366.6 L1083.3,186.1" fill="none" stroke="#cbd5e1" stroke-width="1.5"/>
<line x1="130.75" y1="177.07692307692258" x2="130.75" y2="177.07692307692258" stroke="#2563a6" stroke-width="2"/>
<line x1="124.75" y1="177.07692307692258" x2="136.75" y2="177.07692307692258" stroke="#2563a6" stroke-width="2"/>
<line x1="124.75" y1="177.07692307692258" x2="136.75" y2="177.07692307692258" stroke="#2563a6" stroke-width="2"/>
<circle cx="130.8" cy="177.1" r="6.5" fill="#2563a6" stroke="#ffffff" stroke-width="2"/>
<text x="140.75" y="167.07692307692258" class="point-label" text-anchor="start">Baseline · 100.0%</text>
<circle cx="730.8" cy="397.0" r="6.5" fill="#2563a6" stroke="#ffffff" stroke-width="2"/>
<text x="740.75" y="386.9533333333333" class="point-label" text-anchor="start">Baseline · 53.6s</text>
<line x1="248.25" y1="177.07692307692258" x2="248.25" y2="177.07692307692258" stroke="#d97706" stroke-width="2"/>
<line x1="242.25" y1="177.07692307692258" x2="254.25" y2="177.07692307692258" stroke="#d97706" stroke-width="2"/>
<line x1="242.25" y1="177.07692307692258" x2="254.25" y2="177.07692307692258" stroke="#d97706" stroke-width="2"/>
<circle cx="248.3" cy="177.1" r="6.5" fill="#d97706" stroke="#ffffff" stroke-width="2"/>
<text x="258.25" y="194.07692307692258" class="point-label" text-anchor="start">Balanced · 100.0%</text>
<circle cx="848.3" cy="366.6" r="6.5" fill="#d97706" stroke="#ffffff" stroke-width="2"/>
<text x="858.25" y="356.61333333333334" class="point-label" text-anchor="start">Balanced · 58.1s</text>
<line x1="483.25" y1="404.7692307692305" x2="483.25" y2="177.07692307692258" stroke="#6b7280" stroke-width="2"/>
<line x1="477.25" y1="404.7692307692305" x2="489.25" y2="404.7692307692305" stroke="#6b7280" stroke-width="2"/>
<line x1="477.25" y1="177.07692307692258" x2="489.25" y2="177.07692307692258" stroke="#6b7280" stroke-width="2"/>
<circle cx="483.3" cy="254.0" r="6.5" fill="#6b7280" stroke="#ffffff" stroke-width="2"/>
<text x="493.25" y="243.99999999999932" class="point-label" text-anchor="start">Fixed · 98.3%</text>
<circle cx="1083.3" cy="186.1" r="6.5" fill="#6b7280" stroke="#ffffff" stroke-width="2"/>
<text x="1093.25" y="176.0933333333333" class="point-label" text-anchor="start">Fixed · 85.2s</text>
<text x="54" y="540" class="note" text-anchor="start">Interpretation: balanced halved calls/credits relative to fixed review and reduced P95 latency; it did not outperform the one-call baseline on this sample.</text>
<text x="54" y="570" class="footnote" text-anchor="start">Limitations: n=3 synthetic cases, one iteration, one provider, one model judge, no human review; judge also served as critic.</text>
<text x="54" y="596" class="footnote" text-anchor="start">Source: evals/code-review-v1.jsonl · generated 2026-07-14T10:38:17.103Z</text>
</svg>
