<svg xmlns="http://www.w3.org/2000/svg" width="1400" height="820" viewBox="0 0 1400 820" role="img" aria-labelledby="title desc">
<title id="title">Training dynamics and H200 utilization</title>
<desc id="desc">Loss curves and H200 utilization are plotted from training receipts.</desc>
<rect width="1400" height="820" fill="#ffffff"/>
<style>
      text { font-family: Inter, ui-sans-serif, system-ui, -apple-system, sans-serif; fill: #172033; }
      .title { font-size: 30px; font-weight: 700; }
      .subtitle { font-size: 16px; fill: #687083; }
      .label { font-size: 15px; font-weight: 600; }
      .small { font-size: 13px; fill: #687083; }
      .value { font-size: 14px; font-weight: 700; }
      .axis { stroke: #d9deea; stroke-width: 1; }
    </style>
<text x="70.0" y="58.0" class="title" text-anchor="start">Training dynamics and H200 utilization</text>
<text x="70.0" y="88.0" class="subtitle" text-anchor="start">Rank-32 LoRA, BF16, 2 epochs, seed 20260716</text>
<text x="70.0" y="140.0" class="label" text-anchor="start">Optimization loss</text>
<line x1="70.0" y1="680.0" x2="660.0" y2="680.0" stroke="#d9deea" stroke-width="1.0"/>
<text x="60.0" y="684.0" class="small" text-anchor="end">0.00</text>
<line x1="70.0" y1="578.0" x2="660.0" y2="578.0" stroke="#d9deea" stroke-width="1.0"/>
<text x="60.0" y="582.0" class="small" text-anchor="end">0.14</text>
<line x1="70.0" y1="476.0" x2="660.0" y2="476.0" stroke="#d9deea" stroke-width="1.0"/>
<text x="60.0" y="480.0" class="small" text-anchor="end">0.28</text>
<line x1="70.0" y1="374.0" x2="660.0" y2="374.0" stroke="#d9deea" stroke-width="1.0"/>
<text x="60.0" y="378.0" class="small" text-anchor="end">0.42</text>
<line x1="70.0" y1="272.0" x2="660.0" y2="272.0" stroke="#d9deea" stroke-width="1.0"/>
<text x="60.0" y="276.0" class="small" text-anchor="end">0.56</text>
<line x1="70.0" y1="170.0" x2="660.0" y2="170.0" stroke="#d9deea" stroke-width="1.0"/>
<text x="60.0" y="174.0" class="small" text-anchor="end">0.70</text>
<path d="M 71.0 199.4 L 73.1 229.5 L 76.3 333.1 L 78.4 427.8 L 80.5 504.8 L 83.6 545.8 L 85.7 560.2 L 87.8 557.8 L 90.9 574.4 L 93.0 574.8 L 96.2 577.9 L 98.2 576.8 L 100.3 582.2 L 103.5 583.2 L 105.6 590.3 L 107.7 589.6 L 110.8 587.4 L 112.9 590.1 L 115.0 586.7 L 118.1 594.8 L 120.2 593.5 L 122.3 593.8 L 125.4 591.5 L 127.5 591.7 L 130.7 598.7 L 132.8 599.3 L 134.9 599.2 L 138.0 595.6 L 140.1 596.3 L 142.2 591.8 L 145.3 594.6 L 147.4 601.6 L 149.5 596.9 L 152.6 601.8 L 154.7 602.5 L 156.8 599.1 L 160.0 603.2 L 162.1 599.5 L 165.2 603.3 L 167.3 601.2 L 169.4 608.2 L 172.5 606.3 L 174.6 604.9 L 176.7 605.2 L 179.8 605.8 L 181.9 604.8 L 184.0 607.9 L 187.2 601.0 L 189.3 606.7 L 191.3 605.9 L 194.5 606.2 L 196.6 605.1 L 198.7 608.1 L 201.8 604.0 L 203.9 609.9 L 207.0 608.5 L 209.1 608.1 L 211.2 608.7 L 214.4 603.1 L 216.5 610.1 L 218.5 603.3 L 221.7 608.2 L 223.8 605.9 L 225.9 611.0 L 229.0 609.7 L 231.1 608.2 L 233.2 609.2 L 236.3 609.0 L 238.4 608.5 L 241.6 608.3 L 243.7 608.8 L 245.7 607.6 L 248.9 610.6 L 251.0 610.5 L 253.1 613.6 L 256.2 615.4 L 258.3 613.7 L 260.4 611.5 L 263.5 610.9 L 265.6 614.9 L 267.7 611.0 L 270.9 612.6 L 272.9 613.8 L 276.1 612.5 L 278.2 612.2 L 280.3 615.8 L 283.4 616.4 L 285.5 614.3 L 287.6 615.1 L 290.7 614.7 L 292.8 613.6 L 294.9 613.4 L 298.0 616.7 L 300.1 609.8 L 302.2 610.5 L 305.4 616.2 L 307.5 615.7 L 309.6 616.7 L 312.7 618.6 L 314.8 612.4 L 317.9 619.4 L 320.0 615.7 L 322.1 616.2 L 325.2 617.7 L 327.3 617.7 L 329.4 617.4 L 332.6 614.8 L 334.7 617.3 L 336.8 617.6 L 339.9 618.9 L 342.0 617.0 L 344.1 619.3 L 347.2 619.0 L 349.3 621.6 L 352.4 615.0 L 354.5 612.5 L 356.6 619.1 L 359.8 617.7 L 361.9 615.8 L 364.0 617.4 L 367.1 618.8 L 369.2 618.5 L 371.3 619.9 L 374.4 618.7 L 376.5 617.0 L 378.6 618.2 L 381.7 621.8 L 383.8 619.5 L 387.0 622.0 L 389.1 621.8 L 391.2 620.3 L 394.3 623.8 L 396.4 621.9 L 398.5 622.1 L 401.6 619.9 L 403.7 623.1 L 405.8 619.0 L 408.9 624.0 L 411.0 620.0 L 413.1 619.7 L 416.3 621.3 L 418.4 625.0 L 421.5 620.5 L 423.6 624.7 L 425.7 623.0 L 428.8 622.7 L 430.9 622.1 L 433.0 622.0 L 436.1 618.6 L 438.2 624.7 L 440.3 623.5 L 443.5 622.1 L 445.5 620.8 L 447.6 621.3 L 450.8 622.6 L 452.9 624.6 L 455.0 621.2 L 458.1 622.4 L 460.2 621.3 L 463.3 624.4 L 465.4 624.4 L 467.5 623.4 L 470.7 624.8 L 472.7 626.7 L 474.8 621.5 L 478.0 623.9 L 480.1 624.5 L 482.2 621.4 L 485.3 623.1 L 487.4 625.1 L 489.5 623.8 L 492.6 625.2 L 494.7 625.0 L 497.9 625.7 L 499.9 626.1 L 502.0 619.1 L 505.2 626.3 L 507.3 622.7 L 509.4 625.2 L 512.5 625.1 L 514.6 626.5 L 516.7 626.1 L 519.8 628.4 L 521.9 626.1 L 524.0 626.1 L 527.1 624.9 L 529.2 628.8 L 532.4 622.8 L 534.5 629.8 L 536.6 626.4 L 539.7 625.7 L 541.8 629.1 L 543.9 625.9 L 547.0 620.9 L 549.1 630.4 L 551.2 630.4 L 554.3 628.4 L 556.4 629.0 L 558.5 626.4 L 561.7 624.9 L 563.8 631.1 L 565.9 626.3 L 569.0 627.3 L 571.1 627.1 L 574.2 625.9 L 576.3 623.4 L 578.4 628.0 L 581.5 629.9 L 583.6 628.3 L 585.7 629.5 L 588.9 629.6 L 591.0 629.3 L 593.0 629.7 L 596.2 629.9 L 598.3 630.1 L 600.4 630.2 L 603.5 630.5 L 605.6 629.6 L 608.7 627.8 L 610.8 627.4 L 612.9 631.1 L 616.1 628.8 L 618.2 628.7 L 620.2 629.0 L 623.4 630.0 L 625.5 629.6 L 627.6 631.6 L 630.7 630.7 L 632.8 631.5 L 634.9 628.5 L 638.0 634.1 L 640.1 628.5 L 643.3 631.5 L 645.4 632.4 L 647.4 630.3 L 650.6 629.4 L 652.7 634.6 L 654.8 628.0 L 657.9 631.3 L 660.0 629.0" fill="none" stroke="#2d68c4" stroke-width="3.0" stroke-linejoin="round" stroke-linecap="round"/>
<circle cx="174.6" cy="603.5" r="7.0" fill="#df8b3a" stroke="#ffffff" stroke-width="2"/>
<circle cx="279.2" cy="613.0" r="7.0" fill="#df8b3a" stroke="#ffffff" stroke-width="2"/>
<circle cx="383.8" cy="620.0" r="7.0" fill="#df8b3a" stroke="#ffffff" stroke-width="2"/>
<circle cx="488.4" cy="621.8" r="7.0" fill="#df8b3a" stroke="#ffffff" stroke-width="2"/>
<circle cx="593.0" cy="628.3" r="7.0" fill="#df8b3a" stroke="#ffffff" stroke-width="2"/>
<circle cx="660.0" cy="628.9" r="7.0" fill="#df8b3a" stroke="#ffffff" stroke-width="2"/>
<circle cx="660.0" cy="628.9" r="7.0" fill="#df8b3a" stroke="#ffffff" stroke-width="2"/>
<text x="70.0" y="710.0" class="small" text-anchor="start">optimizer step</text>
<text x="660.0" y="710.0" class="small" text-anchor="end">564</text>
<circle cx="90.0" cy="746.0" r="5.0" fill="#2d68c4" stroke="#ffffff" stroke-width="2"/>
<text x="102.0" y="751.0" class="small" text-anchor="start">train loss</text>
<circle cx="215.0" cy="746.0" r="5.0" fill="#df8b3a" stroke="#ffffff" stroke-width="2"/>
<text x="227.0" y="751.0" class="small" text-anchor="start">validation loss</text>
<text x="760.0" y="140.0" class="label" text-anchor="start">GPU utilization and memory</text>
<line x1="760.0" y1="680.0" x2="1350.0" y2="680.0" stroke="#d9deea" stroke-width="1.0"/>
<text x="750.0" y="684.0" class="small" text-anchor="end">0%</text>
<line x1="760.0" y1="578.0" x2="1350.0" y2="578.0" stroke="#d9deea" stroke-width="1.0"/>
<text x="750.0" y="582.0" class="small" text-anchor="end">20%</text>
<line x1="760.0" y1="476.0" x2="1350.0" y2="476.0" stroke="#d9deea" stroke-width="1.0"/>
<text x="750.0" y="480.0" class="small" text-anchor="end">40%</text>
<line x1="760.0" y1="374.0" x2="1350.0" y2="374.0" stroke="#d9deea" stroke-width="1.0"/>
<text x="750.0" y="378.0" class="small" text-anchor="end">60%</text>
<line x1="760.0" y1="272.0" x2="1350.0" y2="272.0" stroke="#d9deea" stroke-width="1.0"/>
<text x="750.0" y="276.0" class="small" text-anchor="end">80%</text>
<line x1="760.0" y1="170.0" x2="1350.0" y2="170.0" stroke="#d9deea" stroke-width="1.0"/>
<text x="750.0" y="174.0" class="small" text-anchor="end">100%</text>
<path d="M 760.0 680.0 L 762.6 680.0 L 764.9 170.0 L 767.7 170.0 L 769.9 170.0 L 772.5 170.0 L 774.8 170.0 L 777.4 170.0 L 779.6 170.0 L 782.2 170.0 L 784.7 170.0 L 787.3 170.0 L 789.5 170.0 L 792.1 170.0 L 794.4 170.0 L 797.0 170.0 L 799.4 170.0 L 802.0 170.0 L 804.3 170.0 L 806.9 170.0 L 809.5 170.0 L 811.8 170.0 L 814.4 170.0 L 816.8 170.0 L 819.4 170.0 L 821.7 170.0 L 824.3 170.0 L 826.5 170.0 L 829.1 404.6 L 831.6 170.0 L 834.2 170.0 L 836.4 170.0 L 839.1 170.0 L 841.3 170.0 L 843.9 170.0 L 846.2 170.0 L 849.0 170.0 L 851.6 170.0 L 853.8 674.9 L 856.4 236.3 L 858.7 256.7 L 861.3 215.9 L 863.7 215.9 L 866.3 170.0 L 868.6 170.0 L 871.2 170.0 L 873.4 170.0 L 876.1 170.0 L 878.3 170.0 L 881.1 170.0 L 883.3 170.0 L 886.0 170.0 L 888.2 170.0 L 890.8 170.0 L 893.1 170.0 L 895.9 170.0 L 898.5 389.3 L 900.7 170.0 L 903.3 170.0 L 905.6 170.0 L 908.2 170.0 L 910.4 170.0 L 913.2 170.0 L 915.5 170.0 L 918.1 170.0 L 920.3 170.0 L 923.0 170.0 L 925.2 170.0 L 928.0 170.0 L 930.3 414.8 L 932.9 170.0 L 935.1 170.0 L 937.7 170.0 L 940.0 170.0 L 942.8 170.0 L 945.4 170.0 L 947.6 170.0 L 950.3 170.0 L 952.5 170.0 L 955.1 170.0 L 957.4 221.0 L 960.2 221.0 L 962.4 241.4 L 965.0 261.8 L 967.3 170.0 L 969.9 170.0 L 972.1 170.0 L 974.9 170.0 L 977.2 170.0 L 979.8 170.0 L 982.0 170.0 L 984.6 170.0 L 987.3 399.5 L 989.5 170.0 L 992.3 170.0 L 994.5 170.0 L 997.2 170.0 L 999.4 170.0 L 1002.0 170.0 L 1004.3 170.0 L 1007.1 170.0 L 1009.3 170.0 L 1011.9 170.0 L 1014.2 170.0 L 1016.8 170.0 L 1019.0 170.0 L 1021.6 170.0 L 1024.1 170.0 L 1026.7 170.0 L 1028.9 170.0 L 1031.5 170.0 L 1034.2 170.0 L 1036.4 170.0 L 1039.2 170.0 L 1041.5 170.0 L 1044.1 170.0 L 1046.3 170.0 L 1048.9 170.0 L 1051.2 170.0 L 1054.0 394.4 L 1056.2 170.0 L 1058.8 251.6 L 1061.1 241.4 L 1063.7 210.8 L 1065.9 221.0 L 1068.5 170.0 L 1071.0 170.0 L 1073.6 170.0 L 1075.8 170.0 L 1078.5 170.0 L 1081.1 170.0 L 1083.3 170.0 L 1086.1 170.0 L 1088.4 170.0 L 1091.0 170.0 L 1093.2 170.0 L 1095.8 170.0 L 1098.1 170.0 L 1100.9 170.0 L 1103.1 170.0 L 1105.7 170.0 L 1108.0 170.0 L 1110.6 170.0 L 1112.8 343.4 L 1115.5 170.0 L 1117.9 170.0 L 1120.5 170.0 L 1122.7 170.0 L 1125.4 170.0 L 1128.0 170.0 L 1130.2 170.0 L 1133.0 170.0 L 1135.3 170.0 L 1137.9 170.0 L 1140.1 170.0 L 1142.7 170.0 L 1145.0 170.0 L 1147.8 170.0 L 1150.0 170.0 L 1152.6 170.0 L 1154.9 170.0 L 1157.5 170.0 L 1159.7 246.5 L 1162.4 241.4 L 1164.8 221.0 L 1167.4 221.0 L 1170.0 170.0 L 1172.3 170.0 L 1174.9 170.0 L 1177.1 170.0 L 1179.9 170.0 L 1182.2 170.0 L 1184.8 170.0 L 1187.0 170.0 L 1189.7 170.0 L 1191.9 170.0 L 1194.5 170.0 L 1196.9 170.0 L 1199.6 170.0 L 1201.8 170.0 L 1204.4 170.0 L 1206.7 170.0 L 1209.3 170.0 L 1211.5 170.0 L 1214.3 170.0 L 1216.9 170.0 L 1219.2 170.0 L 1221.8 170.0 L 1224.0 170.0 L 1226.7 170.0 L 1229.1 170.0 L 1231.7 170.0 L 1233.9 170.0 L 1236.6 170.0 L 1238.8 170.0 L 1241.4 170.0 L 1243.8 170.0 L 1246.5 170.0 L 1248.7 170.0 L 1251.3 170.0 L 1253.6 170.0 L 1256.2 170.0 L 1258.4 170.0 L 1261.2 236.3 L 1263.8 261.8 L 1266.1 226.1 L 1268.7 231.2 L 1270.9 170.0 L 1273.6 170.0 L 1276.0 170.0 L 1278.6 170.0 L 1280.9 170.0 L 1283.5 170.0 L 1285.7 170.0 L 1288.3 170.0 L 1290.6 170.0 L 1293.4 170.0 L 1295.6 170.0 L 1298.2 170.0 L 1300.5 170.0 L 1303.1 170.0 L 1305.7 170.0 L 1308.1 312.8 L 1310.8 170.0 L 1313.0 170.0 L 1315.6 170.0 L 1317.9 170.0 L 1320.5 170.0 L 1322.9 170.0 L 1325.5 170.0 L 1327.8 170.0 L 1330.4 256.7 L 1332.6 236.3 L 1335.2 215.9 L 1337.5 251.6 L 1340.3 221.0 L 1342.5 226.1 L 1345.1 210.8 L 1347.4 241.4 L 1350.0 680.0" fill="none" stroke="#2d68c4" stroke-width="2.5" stroke-linejoin="round" stroke-linecap="round"/>
<path d="M 760.0 680.0 L 762.6 581.8 L 764.9 386.1 L 767.7 386.1 L 769.9 386.1 L 772.5 386.1 L 774.8 266.3 L 777.4 266.3 L 779.6 266.3 L 782.2 266.3 L 784.7 266.3 L 787.3 266.3 L 789.5 266.3 L 792.1 266.3 L 794.4 266.3 L 797.0 266.3 L 799.4 266.3 L 802.0 266.3 L 804.3 266.3 L 806.9 266.3 L 809.5 266.3 L 811.8 266.3 L 814.4 266.3 L 816.8 266.3 L 819.4 266.3 L 821.7 266.3 L 824.3 266.3 L 826.5 266.3 L 829.1 266.3 L 831.6 266.3 L 834.2 266.3 L 836.4 266.3 L 839.1 266.3 L 841.3 266.3 L 843.9 266.3 L 846.2 266.3 L 849.0 266.3 L 851.6 266.3 L 853.8 266.3 L 856.4 266.3 L 858.7 266.3 L 861.3 266.3 L 863.7 266.3 L 866.3 266.3 L 868.6 266.3 L 871.2 266.3 L 873.4 266.3 L 876.1 266.3 L 878.3 266.3 L 881.1 266.3 L 883.3 266.3 L 886.0 266.3 L 888.2 266.3 L 890.8 266.3 L 893.1 266.3 L 895.9 266.3 L 898.5 266.3 L 900.7 266.3 L 903.3 266.3 L 905.6 266.3 L 908.2 266.3 L 910.4 266.3 L 913.2 266.3 L 915.5 266.3 L 918.1 266.3 L 920.3 266.3 L 923.0 266.3 L 925.2 266.3 L 928.0 266.3 L 930.3 266.3 L 932.9 266.3 L 935.1 266.3 L 937.7 266.3 L 940.0 266.3 L 942.8 266.3 L 945.4 266.3 L 947.6 266.3 L 950.3 266.3 L 952.5 266.3 L 955.1 266.3 L 957.4 266.3 L 960.2 266.3 L 962.4 266.3 L 965.0 266.3 L 967.3 266.3 L 969.9 266.3 L 972.1 266.3 L 974.9 266.3 L 977.2 266.3 L 979.8 266.3 L 982.0 266.3 L 984.6 266.3 L 987.3 266.3 L 989.5 266.3 L 992.3 266.3 L 994.5 266.3 L 997.2 266.3 L 999.4 266.3 L 1002.0 266.3 L 1004.3 266.3 L 1007.1 266.3 L 1009.3 266.3 L 1011.9 266.3 L 1014.2 266.3 L 1016.8 266.3 L 1019.0 266.3 L 1021.6 266.3 L 1024.1 266.3 L 1026.7 266.3 L 1028.9 266.3 L 1031.5 266.3 L 1034.2 266.3 L 1036.4 266.3 L 1039.2 266.3 L 1041.5 266.2 L 1044.1 266.2 L 1046.3 266.2 L 1048.9 266.2 L 1051.2 266.2 L 1054.0 266.2 L 1056.2 266.2 L 1058.8 266.2 L 1061.1 266.2 L 1063.7 266.2 L 1065.9 266.2 L 1068.5 266.2 L 1071.0 266.2 L 1073.6 266.2 L 1075.8 266.2 L 1078.5 266.2 L 1081.1 266.2 L 1083.3 266.2 L 1086.1 266.2 L 1088.4 266.2 L 1091.0 266.2 L 1093.2 266.2 L 1095.8 266.2 L 1098.1 266.2 L 1100.9 266.2 L 1103.1 266.2 L 1105.7 266.2 L 1108.0 266.2 L 1110.6 266.2 L 1112.8 266.2 L 1115.5 266.2 L 1117.9 266.2 L 1120.5 266.2 L 1122.7 266.2 L 1125.4 266.2 L 1128.0 266.2 L 1130.2 266.2 L 1133.0 266.2 L 1135.3 266.2 L 1137.9 266.2 L 1140.1 266.2 L 1142.7 266.2 L 1145.0 266.2 L 1147.8 266.2 L 1150.0 266.2 L 1152.6 266.2 L 1154.9 266.2 L 1157.5 266.2 L 1159.7 266.2 L 1162.4 266.2 L 1164.8 266.2 L 1167.4 266.2 L 1170.0 266.2 L 1172.3 266.2 L 1174.9 266.2 L 1177.1 266.2 L 1179.9 266.2 L 1182.2 266.2 L 1184.8 266.2 L 1187.0 266.2 L 1189.7 266.2 L 1191.9 266.2 L 1194.5 266.2 L 1196.9 266.2 L 1199.6 266.2 L 1201.8 266.2 L 1204.4 266.2 L 1206.7 266.2 L 1209.3 266.2 L 1211.5 266.2 L 1214.3 266.2 L 1216.9 266.2 L 1219.2 266.2 L 1221.8 266.2 L 1224.0 266.2 L 1226.7 266.2 L 1229.1 266.2 L 1231.7 266.2 L 1233.9 266.2 L 1236.6 266.2 L 1238.8 266.2 L 1241.4 266.2 L 1243.8 266.2 L 1246.5 266.2 L 1248.7 266.2 L 1251.3 266.2 L 1253.6 266.2 L 1256.2 266.2 L 1258.4 266.2 L 1261.2 266.2 L 1263.8 266.2 L 1266.1 266.2 L 1268.7 266.2 L 1270.9 266.2 L 1273.6 266.2 L 1276.0 266.2 L 1278.6 266.2 L 1280.9 266.2 L 1283.5 266.2 L 1285.7 266.2 L 1288.3 266.2 L 1290.6 266.2 L 1293.4 266.2 L 1295.6 266.2 L 1298.2 266.2 L 1300.5 266.2 L 1303.1 266.2 L 1305.7 266.2 L 1308.1 266.2 L 1310.8 266.2 L 1313.0 266.2 L 1315.6 266.2 L 1317.9 266.2 L 1320.5 266.2 L 1322.9 266.2 L 1325.5 266.2 L 1327.8 266.2 L 1330.4 266.2 L 1332.6 266.2 L 1335.2 266.2 L 1337.5 266.2 L 1340.3 266.2 L 1342.5 266.2 L 1345.1 266.2 L 1347.4 266.2 L 1350.0 266.2" fill="none" stroke="#67758d" stroke-width="2.5" stroke-linejoin="round" stroke-linecap="round"/>
<text x="760.0" y="710.0" class="small" text-anchor="start">elapsed minutes</text>
<text x="1350.0" y="710.0" class="small" text-anchor="end">52.6</text>
<circle cx="780.0" cy="746.0" r="5.0" fill="#2d68c4" stroke="#ffffff" stroke-width="2"/>
<text x="792.0" y="751.0" class="small" text-anchor="start">GPU utilization</text>
<circle cx="935.0" cy="746.0" r="5.0" fill="#67758d" stroke="#ffffff" stroke-width="2"/>
<text x="947.0" y="751.0" class="small" text-anchor="start">VRAM used</text>
<text x="70.0" y="790.0" class="small" text-anchor="start">Telemetry samples: 1,561. Mean GPU: 96.6%. Peak VRAM: 81.1%. Mean power: 670 W.</text>
</svg>
